<svg aria-hidden="true" version="1.1" xmlns="http://www.w3.org/2000/svg" xmlns:xlink="http://www.w3.org/1999/xlink">
<defs>
<symbol id="icon-loader" viewBox="0 0 24 24">
<path d="M11 2v4c0 0.552 0.448 1 1 1s1-0.448 1-1v-4c0-0.552-0.448-1-1-1s-1 0.448-1 1zM11 18v4c0 0.552 0.448 1 1 1s1-0.448 1-1v-4c0-0.552-0.448-1-1-1s-1 0.448-1 1zM4.223 5.637l2.83 2.83c0.391 0.391 1.024 0.391 1.414 0s0.391-1.024 0-1.414l-2.83-2.83c-0.391-0.391-1.024-0.391-1.414 0s-0.391 1.024 0 1.414zM15.533 16.947l2.83 2.83c0.391 0.391 1.024 0.391 1.414 0s0.391-1.024 0-1.414l-2.83-2.83c-0.391-0.391-1.024-0.391-1.414 0s-0.391 1.024 0 1.414zM2 13h4c0.552 0 1-0.448 1-1s-0.448-1-1-1h-4c-0.552 0-1 0.448-1 1s0.448 1 1 1zM18 13h4c0.552 0 1-0.448 1-1s-0.448-1-1-1h-4c-0.552 0-1 0.448-1 1s0.448 1 1 1zM5.637 19.777l2.83-2.83c0.391-0.391 0.391-1.024 0-1.414s-1.024-0.391-1.414 0l-2.83 2.83c-0.391 0.391-0.391 1.024 0 1.414s1.024 0.391 1.414 0zM16.947 8.467l2.83-2.83c0.391-0.391 0.391-1.024 0-1.414s-1.024-0.391-1.414 0l-2.83 2.83c-0.391 0.391-0.391 1.024 0 1.414s1.024 0.391 1.414 0z"></path>
</symbol>
<symbol id="icon-reloader">
<svg width="100%" height="100%" viewBox="0 0 512 512" aria-hidden="true"
focusable="false">
<path d="M400 148l-21.12-24.57A191.43 191.43 0 00240 64C134 64 48 150 48 256s86 192 192 192a192.09 192.09 0 00181.07-128" fill="none" stroke="currentColor" stroke-linecap="round" stroke-miterlimit="10" stroke-width="56"/>
<path d="M464 97.42V208a16 16 0 01-16 16H337.42c-14.26 0-21.4-17.23-11.32-27.31L436.69 86.1C446.77 76 464 83.16 464 97.42z" fill="currentColor" stroke="currentColor" stroke-linecap="round" stroke-miterlimit="10" stroke-width="10"/>
</svg>
</symbol>
<symbol id="icon-logo">
<svg width="100%" height="100%" viewBox="0 0 48 48" fill="currentColor">     
<path d="M5,13H7a.9.9,0,0,1,1,1v2a.9.9,0,0,1-1,1H5a.9.9,0,0,1-1-1V14A.9.9,0,0,1,5,13Zm6,0h2a.9.9,0,0,1,1,1v2a.9.9,0,0,1-1,1H11a.9.9,0,0,1-1-1V14A.9.9,0,0,1,11,13Zm6,0h2a.9.9,0,0,1,1,1v2a.9.9,0,0,1-1,1H17a.9.9,0,0,1-1-1V14A.9.9,0,0,1,17,13Zm6,0h2a.9.9,0,0,1,1,1v2a.9.9,0,0,1-1,1H23a.9.9,0,0,1-1-1V14A.9.9,0,0,1,23,13Zm6,0h2a.9.9,0,0,1,1,1v2a.9.9,0,0,1-1,1H29a.9.9,0,0,1-1-1V14A.9.9,0,0,1,29,13Zm6,0h2a.9.9,0,0,1,1,1v2a.9.9,0,0,1-1,1H35a.9.9,0,0,1-1-1V14A.9.9,0,0,1,35,13Zm6,0h2a.9.9,0,0,1,1,1v2a.9.9,0,0,1-1,1H41a.9.9,0,0,1-1-1V14A.9.9,0,0,1,41,13ZM11,19h2a.9.9,0,0,1,1,1v2a.9.9,0,0,1-1,1H11a.9.9,0,0,1-1-1V20A.9.9,0,0,1,11,19Zm6,0h2a.9.9,0,0,1,1,1v2a.9.9,0,0,1-1,1H17a.9.9,0,0,1-1-1V20A.9.9,0,0,1,17,19Zm6,0h2a.9.9,0,0,1,1,1v2a.9.9,0,0,1-1,1H23a.9.9,0,0,1-1-1V20A.9.9,0,0,1,23,19Zm6,0h2a.9.9,0,0,1,1,1v2a.9.9,0,0,1-1,1H29a.9.9,0,0,1-1-1V20A.9.9,0,0,1,29,19Zm6,0h2a.9.9,0,0,1,1,1v2a.9.9,0,0,1-1,1H35a.9.9,0,0,1-1-1V20A.9.9,0,0,1,35,19ZM17,25h2a.9.9,0,0,1,1,1v2a.9.9,0,0,1-1,1H17a.9.9,0,0,1-1-1V26A.9.9,0,0,1,17,25Zm6,0h2a.9.9,0,0,1,1,1v2a.9.9,0,0,1-1,1H23a.9.9,0,0,1-1-1V26A.9.9,0,0,1,23,25Zm6,0h2a.9.9,0,0,1,1,1v2a.9.9,0,0,1-1,1H29a.9.9,0,0,1-1-1V26A.9.9,0,0,1,29,25Zm0,0h2a.9.9,0,0,1,1,1v2a.9.9,0,0,1-1,1H29a.9.9,0,0,1-1-1V26A.9.9,0,0,1,29,25ZM9,31H39a.9.9,0,0,1,1,1v2a.9.9,0,0,1-1,1H9a.9.9,0,0,1-1-1V32A.9.9,0,0,1,9,31Z"/>   
</svg>
</symbol>
<symbol id="icon-keyboard">
<svg width="100%" height="100%" viewBox="0 0 36 24" fill="currentColor">
<path d="m33 24h-30c-1.657 0-3-1.343-3-3v-18c0-1.657 1.343-3 3-3h30c1.657 0 3 1.343 3 3v18c0 1.657-1.343 3-3 3zm-25-16.75v-2.501c-.001-.413-.336-.748-.749-.75h-2.501c-.413.001-.748.336-.75.749v2.501c.001.413.336.748.749.75h2.501c.413-.001.748-.336.75-.749zm6 0v-2.501c-.001-.413-.336-.748-.749-.75h-2.501c-.413.001-.748.336-.75.749v2.501c.001.413.336.748.749.75h2.5c.413-.001.748-.336.75-.749zm6 0v-2.501c-.001-.413-.336-.748-.749-.75h-2.501c-.413.001-.748.336-.75.749v2.501c.001.413.336.748.749.75h2.5c.414-.001.749-.336.75-.749zm6 0v-2.501c-.001-.413-.336-.748-.749-.75h-2.501c-.413.001-.748.336-.75.749v2.501c.001.413.336.748.749.75h2.5c.413-.001.748-.336.75-.749zm6 0v-2.501c-.001-.413-.336-.748-.749-.75h-2.503c-.413.002-.747.336-.749.749v2.501c.001.414.337.749.75.75h2.503c.412-.003.745-.337.746-.749zm-24 6v-2.501c-.001-.413-.336-.748-.749-.75h-2.501c-.413.001-.748.336-.75.749v2.5c.001.413.336.748.749.75h2.501c.413-.001.748-.336.75-.749zm6 0v-2.501c-.001-.413-.336-.748-.749-.75h-2.501c-.413.001-.748.336-.75.749v2.5c.001.413.336.748.749.75h2.5c.413-.001.748-.336.75-.749zm6 0v-2.501c-.001-.413-.336-.748-.749-.75h-2.501c-.413.001-.748.336-.75.749v2.5c.001.413.336.748.749.75h2.5c.414-.001.749-.335.75-.749zm6 0v-2.501c-.001-.413-.336-.748-.749-.75h-2.501c-.413.001-.748.336-.75.749v2.5c.001.413.336.748.749.75h2.5c.414-.001.749-.335.75-.749zm6 0v-2.501c-.001-.413-.335-.747-.748-.75h-2.503c-.414.001-.749.336-.75.749v2.5c.001.414.337.749.75.75h2.503c.412-.002.746-.336.748-.749zm-24 6v-2.501c-.001-.413-.336-.748-.749-.75h-2.501c-.413.001-.748.336-.75.749v2.5c.001.414.336.749.749.75h2.501c.413-.001.748-.336.75-.749zm18 0v-2.501c-.001-.413-.336-.748-.749-.75h-14.501c-.413.001-.748.336-.75.749v2.5c.001.413.336.748.749.75h14.501c.413-.001.748-.336.75-.749zm6 0v-2.501c-.001-.413-.336-.748-.749-.75h-2.503c-.414.001-.749.336-.75.749v2.5c.001.414.337.749.75.75h2.503c.412-.002.746-.336.748-.749z"/>
</svg>
</symbol>
<symbol id="icon-crown">
<svg width="100%" height="100%" viewBox="0 0 512 512"  xml:space="preserve" fill="currentColor">
<path d="M512,152.469c0-21.469-17.422-38.875-38.891-38.875c-21.484,0-38.906,17.406-38.906,38.875
c0,10.5,4.172,20.016,10.938,27c-26.453,54.781-77.016,73.906-116.203,56.594c-34.906-15.438-47.781-59.563-52.141-93.75
c14.234-7.484,23.938-22.391,23.938-39.594C300.734,78.016,280.719,58,256,58c-24.703,0-44.734,20.016-44.734,44.719
c0,17.203,9.703,32.109,23.938,39.594c-4.359,34.188-17.234,78.313-52.141,93.75c-39.188,17.313-89.75-1.813-116.203-56.594
c6.766-6.984,10.938-16.5,10.938-27c0-21.469-17.422-38.875-38.891-38.875C17.422,113.594,0,131,0,152.469
c0,19.781,14.781,36.078,33.875,38.547l44.828,164.078h354.594l44.828-164.078C497.234,188.547,512,172.25,512,152.469z"/>
<path d="M455.016,425.063c0,15.984-12.953,28.938-28.953,28.938H85.938C69.953,454,57,441.047,57,425.063v-2.406
c0-16,12.953-28.953,28.938-28.953h340.125c16,0,28.953,12.953,28.953,28.953V425.063z"/>
</svg>
</symbol>
<symbol id="icon-info">
<svg  width="100%" height="100%" viewBox="0 0 16 16">
<path d="M7.92,5.32v0A.92.92,0,1,0,7,4.37v0A.92.92,0,0,0,7.92,5.32ZM8.85,6H6.55a4.58,4.58,0,0,1-.1.63,3,3,0,0,1-.2.67h1.3v3.53H6.25v1.3H9.57v-1.3H8.85ZM13,3.05A7,7,0,1,0,13,13,7,7,0,0,0,13,3.05ZM12,12A5.6,5.6,0,0,1,4,12,5.61,5.61,0,0,1,4,4,5.6,5.6,0,0,1,12,4,5.61,5.61,0,0,1,12,12Z" fill="currentColor"/>
</svg>
</symbol>
<!-- <symbol id="icon-info-old">
<svg fill="currentColor" width="100%" height="100%" viewBox="0 0 56 56">
<path d="M 24.3320 13.2461 C 24.3320 15.1211 25.8320 16.6211 27.7070 16.6211 C 29.6055 16.6211 31.0820 15.1211 31.0586 13.2461 C 31.0586 11.3477 29.6055 9.8477 27.7070 9.8477 C 25.8320 9.8477 24.3320 11.3477 24.3320 13.2461 Z M 18.5195 44.2305 C 18.5195 45.3789 19.3399 46.1523 20.5820 46.1523 L 35.4179 46.1523 C 36.6601 46.1523 37.4805 45.3789 37.4805 44.2305 C 37.4805 43.1055 36.6601 42.3320 35.4179 42.3320 L 30.7070 42.3320 L 30.7070 24.4492 C 30.7070 23.1836 29.8867 22.3399 28.6680 22.3399 L 21.2383 22.3399 C 20.0195 22.3399 19.1992 23.0899 19.1992 24.2148 C 19.1992 25.3867 20.0195 26.1602 21.2383 26.1602 L 26.3711 26.1602 L 26.3711 42.3320 L 20.5820 42.3320 C 19.3399 42.3320 18.5195 43.1055 18.5195 44.2305 Z" stroke="currentColor" stroke-width="3"/>
</svg>
</symbol> -->
<symbol id="icon--letter-q">
<svg fill="currentColor" width="100%" height="100%" viewBox="0 6 128 128"><path d="M102.61 107.83c10.8-9.85 16.84-24.08 16.84-39.9c0-29.73-21.33-53.82-55.45-53.82S8.55 38.21 8.55 67.93c0 29.73 21.33 53.82 55.45 53.82c7.69 0 14.72-1.23 21.01-3.47l5.97 8.54a2.079 2.079 0 0 0 2.28.81l16.51-4.75c.64-.19 1.16-.67 1.39-1.31c.22-.63.13-1.33-.26-1.89l-8.29-11.85zM64 95.89c-17.72 0-28.81-12.52-28.81-27.96S46.27 39.97 64 39.97s28.81 12.52 28.81 27.96c0 6.65-2.07 12.76-5.82 17.56l-7.26-10.38a2.086 2.086 0 0 0-2.28-.81l-16.52 4.75c-.64.19-1.16.67-1.39 1.31c-.22.63-.13 1.33.26 1.89l9.27 13.25c-1.62.24-3.3.39-5.07.39z">
</path>
</svg>
</symbol>
<symbol id="icon-close">
<svg  width="100%" height="100%" viewBox="0 0 24 24">
<path d="M19 5L5 19M5 5L9.5 9.5M12 12L19 19" stroke="currentColor" stroke-width="2.5"/>
</svg>
</symbol>
<symbol id="icon--right-chevron">
<svg viewBox="0 0 512 512">
<path fill="none" stroke="currentColor" stroke-linecap="round" stroke-linejoin="round" stroke-width="75" d="M184 112l144 144-144 144"/>
</svg>
</symbol>
<symbol id="icon--repeat">
<svg width="100%" height="100%" viewBox="0 0 24 24" fill="none">
<path d="M22 12C22 18 17.6095 22 12.1935 22C7.79192 22 4.24063 19.6651 3 16" stroke="currentColor" stroke-linecap="round" stroke-width="3"/>
<path d="M2 12C2 6 6.3905 2 11.8065 2C16.2081 2 19.7594 4.33489 21 8" stroke="currentColor" stroke-linecap="round" stroke-width="3"/>
<path d="M6.99999 17L3.00001 16L2 20" fill="currentColor" stroke="currentColor" stroke-linecap="round" stroke-width="3"/>
<path d="M17 7L21 8L22 4" fill="currentColor" stroke="currentColor" stroke-linecap="round" stroke-width="3"/>
</svg>
</symbol>
<symbol id="icon--branch">
<svg viewBox="0 0 512 512">
<circle cx="160" cy="96" r="48" fill="currentColor" stroke="currentColor" stroke-linecap="round" stroke-linejoin="round" stroke-width="32"/>
<circle cx="160" cy="416" r="48" fill="currentColor" stroke="currentColor" stroke-linecap="round" stroke-linejoin="round" stroke-width="32"/>
<path fill="none" stroke="currentColor" stroke-linecap="round" stroke-linejoin="round" stroke-width="32" d="M160 368V144"/>
<circle cx="352" cy="160" r="48" fill="currentColor" stroke="currentColor" stroke-linecap="round" stroke-linejoin="round" stroke-width="32"/>
<path d="M352 208c0 128-192 48-192 160" fill="none" stroke="currentColor" stroke-linecap="round" stroke-linejoin="round" stroke-width="32"/>
</svg>
</symbol>
<symbol id="icon--at-sign">
<svg width="100%" height="100%" viewBox="0 0 512 512">
<path d="M320 254.27c-4.5 51-40.12 80-80.55 80s-67.34-35.82-63.45-80 37.12-80 77.55-80 70.33 36 66.45 80z" fill="none" stroke="currentColor" stroke-linecap="round" stroke-linejoin="round" stroke-width="32"/>
<path d="M319.77 415.77c-28.56 12-47.28 14.5-79.28 14.5-97.2 0-169-78.8-160.49-176s94.31-176 191.51-176C381 78.27 441.19 150 432.73 246c-6.31 71.67-52.11 92.32-76.09 88.07-22.56-4-41.18-24.42-37.74-63.5l8.48-96.25" fill="none" stroke="currentColor" stroke-linecap="round" stroke-linejoin="round" stroke-width="32"/>
</svg>
</symbol>
<symbol id="icon--letter-a">
<svg width="100%" height="100%" viewBox="0 0 32.181 32.18">
<path d="M30.037,29.924c-0.67-0.611-1.525-2.094-2.567-4.447L16.539,0.625h-0.424L5.276,24.805 c-1.028,2.311-1.893,3.834-2.593,4.57c-0.7,0.738-1.595,1.189-2.683,1.352v0.828h10.079v-0.828 C8.5,30.608,7.511,30.43,7.107,30.192c-0.687-0.401-1.029-1.026-1.029-1.877c0-0.641,0.209-1.453,0.627-2.438l1.273-2.949h10.705 l1.608,3.777c0.416,0.98,0.642,1.541,0.67,1.676c0.091,0.283,0.135,0.559,0.135,0.826c0,0.447-0.163,0.791-0.49,1.029 c-0.479,0.328-1.305,0.488-2.48,0.488h-0.604v0.828h14.659v-0.828C31.261,30.653,30.545,30.385,30.037,29.924z M8.764,21.274 l4.647-10.436l4.516,10.436H8.764z" fill="currentColor"/>
</svg>
</symbol>
<symbol id="icon--quote">
<svg width="100%" height="100%" viewBox="0 0 15 15">
<path
d="M9.42503 3.44136C10.0561 3.23654 10.7837 3.2402 11.3792 3.54623C12.7532 4.25224 13.3477 6.07191 12.7946 8C12.5465 8.8649 12.1102 9.70472 11.1861 10.5524C10.262 11.4 8.98034 11.9 8.38571 11.9C8.17269 11.9 8 11.7321 8 11.525C8 11.3179 8.17644 11.15 8.38571 11.15C9.06497 11.15 9.67189 10.7804 10.3906 10.236C10.9406 9.8193 11.3701 9.28633 11.608 8.82191C12.0628 7.93367 12.0782 6.68174 11.3433 6.34901C10.9904 6.73455 10.5295 6.95946 9.97725 6.95946C8.7773 6.95946 8.0701 5.99412 8.10051 5.12009C8.12957 4.28474 8.66032 3.68954 9.42503 3.44136ZM3.42503 3.44136C4.05614 3.23654 4.78366 3.2402 5.37923 3.54623C6.7532 4.25224 7.34766 6.07191 6.79462 8C6.54654 8.8649 6.11019 9.70472 5.1861 10.5524C4.26201 11.4 2.98034 11.9 2.38571 11.9C2.17269 11.9 2 11.7321 2 11.525C2 11.3179 2.17644 11.15 2.38571 11.15C3.06497 11.15 3.67189 10.7804 4.39058 10.236C4.94065 9.8193 5.37014 9.28633 5.60797 8.82191C6.06282 7.93367 6.07821 6.68174 5.3433 6.34901C4.99037 6.73455 4.52948 6.95946 3.97725 6.95946C2.7773 6.95946 2.0701 5.99412 2.10051 5.12009C2.12957 4.28474 2.66032 3.68954 3.42503 3.44136Z"
fill="currentColor"/>
</svg>
</symbol>
<symbol id="icon--trash">
<svg width="100%" height="100%" viewBox="0 0 24 24" fill="none" xmlns="http://www.w3.org/2000/svg"><path d="M20.9999 6.73001C20.9799 6.73001 20.9499 6.73001 20.9199 6.73001C15.6299 6.20001 10.3499 6.00001 5.11992 6.53001L3.07992 6.73001C2.65992 6.77001 2.28992 6.47001 2.24992 6.05001C2.20992 5.63001 2.50992 5.27001 2.91992 5.23001L4.95992 5.03001C10.2799 4.49001 15.6699 4.70001 21.0699 5.23001C21.4799 5.27001 21.7799 5.64001 21.7399 6.05001C21.7099 6.44001 21.3799 6.73001 20.9999 6.73001Z" fill="currentColor"/><path d="M8.50001 5.72C8.46001 5.72 8.42001 5.72 8.37001 5.71C7.97001 5.64 7.69001 5.25 7.76001 4.85L7.98001 3.54C8.14001 2.58 8.36001 1.25 10.69 1.25H13.31C15.65 1.25 15.87 2.63 16.02 3.55L16.24 4.85C16.31 5.26 16.03 5.65 15.63 5.71C15.22 5.78 14.83 5.5 14.77 5.1L14.55 3.8C14.41 2.93 14.38 2.76 13.32 2.76H10.7C9.64001 2.76 9.62001 2.9 9.47001 3.79L9.24001 5.09C9.18001 5.46 8.86001 5.72 8.50001 5.72Z" fill="currentColor"/><path d="M15.2099 22.75H8.7899C5.2999 22.75 5.1599 20.82 5.0499 19.26L4.3999 9.19001C4.3699 8.78001 4.6899 8.42001 5.0999 8.39001C5.5199 8.37001 5.8699 8.68001 5.8999 9.09001L6.5499 19.16C6.6599 20.68 6.6999 21.25 8.7899 21.25H15.2099C17.3099 21.25 17.3499 20.68 17.4499 19.16L18.0999 9.09001C18.1299 8.68001 18.4899 8.37001 18.8999 8.39001C19.3099 8.42001 19.6299 8.77001 19.5999 9.19001L18.9499 19.26C18.8399 20.82 18.6999 22.75 15.2099 22.75Z" fill="currentColor"/><path d="M13.6601 17.25H10.3301C9.92008 17.25 9.58008 16.91 9.58008 16.5C9.58008 16.09 9.92008 15.75 10.3301 15.75H13.6601C14.0701 15.75 14.4101 16.09 14.4101 16.5C14.4101 16.91 14.0701 17.25 13.6601 17.25Z" fill="currentColor"/><path d="M14.5 13.25H9.5C9.09 13.25 8.75 12.91 8.75 12.5C8.75 12.09 9.09 11.75 9.5 11.75H14.5C14.91 11.75 15.25 12.09 15.25 12.5C15.25 12.91 14.91 13.25 14.5 13.25Z" fill="currentColor"/></svg>
</symbol>
<symbol id="icon--phone">
<svg width="100%" height="100%" viewBox="0 0 15 15" fill="none">
<path d="M4.71922 0.5H2.5C1.39543 0.5 0.5 1.39543 0.5 2.5V4.5C0.5 10.0228 4.97715 14.5 10.5 14.5H12.5C13.6046 14.5 14.5 13.6046 14.5 12.5V11.118C14.5 10.7393 14.286 10.393 13.9472 10.2236L11.5313 9.01564C10.987 8.74349 10.3278 9.01652 10.1354 9.59384L9.83762 10.4871C9.64474 11.0658 9.05118 11.4102 8.45309 11.2906C6.05929 10.8119 4.18814 8.94071 3.70938 6.54691C3.58976 5.94882 3.93422 5.35526 4.51286 5.16238L5.62149 4.79284C6.11721 4.6276 6.40214 4.10855 6.2754 3.60162L5.68937 1.25746C5.57807 0.812297 5.17809 0.5 4.71922 0.5Z" stroke="currentColor"/>
</svg>
</symbol>
<symbol id="icon--email">
<svg width="100%" height="100%" viewBox="0 0 24 24">
  <path d="m16.484 11.976 6.151-5.344v10.627zm-7.926.905 2.16 1.875c.339.288.781.462 1.264.462h.017-.001.014c.484 0 .926-.175 1.269-.465l-.003.002 2.16-1.875 6.566 5.639h-20.009zm-6.572-7.516h20.03l-9.621 8.356c-.104.082-.236.132-.38.132-.005 0-.009 0-.014 0h.001c-.004 0-.009 0-.014 0-.144 0-.277-.05-.381-.133l.001.001zm-.621 1.266 6.15 5.344-6.15 5.28zm21.6-2.441c-.24-.12-.522-.19-.821-.19h-20.285c-.3.001-.584.071-.835.197l.011-.005c-.618.309-1.035.937-1.035 1.663v.004 12.168c.001 1.026.833 1.857 1.858 1.858h20.283c1.026-.001 1.857-.833 1.858-1.858v-12.168c0-.001 0-.002 0-.004 0-.727-.419-1.357-1.029-1.66l-.011-.005z" fill="currentColor" />
</svg>
</symbol>
<symbol id="icon--location">
<svg width="100%" height="100%" viewBox="0 0 24 24" fill="none"><path d="M12 2c-4.4 0-8 3.6-8 8 0 5.4 7 11.5 7.3 11.8.2.1.5.2.7.2.2 0 .5-.1.7-.2.3-.3 7.3-6.4 7.3-11.8 0-4.4-3.6-8-8-8zm0 17.7c-2.1-2-6-6.3-6-9.7 0-3.3 2.7-6 6-6s6 2.7 6 6-3.9 7.7-6 9.7zM12 6c-2.2 0-4 1.8-4 4s1.8 4 4 4 4-1.8 4-4-1.8-4-4-4zm0 6c-1.1 0-2-.9-2-2s.9-2 2-2 2 .9 2 2-.9 2-2 2z" fill="currentColor"/></svg>
</symbol>
<symbol id="icon--alert-triangle">
<svg width="100%" height="100%" viewBox="0 0 24 24">
<path d="M24,0 L24,24 L0,24 L0,0 L24,0 Z M12.5934901,23.257841 L12.5819402,23.2595131 L12.5108777,23.2950439 L12.4918791,23.2987469 L12.4918791,23.2987469 L12.4767152,23.2950439 L12.4056548,23.2595131 C12.3958229,23.2563662 12.3870493,23.2590235 12.3821421,23.2649074 L12.3780323,23.275831 L12.360941,23.7031097 L12.3658947,23.7234994 L12.3769048,23.7357139 L12.4804777,23.8096931 L12.4953491,23.8136134 L12.4953491,23.8136134 L12.5071152,23.8096931 L12.6106902,23.7357139 L12.6232938,23.7196733 L12.6232938,23.7196733 L12.6266527,23.7031097 L12.609561,23.275831 C12.6075724,23.2657013 12.6010112,23.2592993 12.5934901,23.257841 L12.5934901,23.257841 Z M12.8583906,23.1452862 L12.8445485,23.1473072 L12.6598443,23.2396597 L12.6498822,23.2499052 L12.6498822,23.2499052 L12.6471943,23.2611114 L12.6650943,23.6906389 L12.6699349,23.7034178 L12.6699349,23.7034178 L12.678386,23.7104931 L12.8793402,23.8032389 C12.8914285,23.8068999 12.9022333,23.8029875 12.9078286,23.7952264 L12.9118235,23.7811639 L12.8776777,23.1665331 C12.8752882,23.1545897 12.8674102,23.1470016 12.8583906,23.1452862 L12.8583906,23.1452862 Z M12.1430473,23.1473072 C12.1332178,23.1423925 12.1221763,23.1452606 12.1156365,23.1525954 L12.1099173,23.1665331 L12.0757714,23.7811639 C12.0751323,23.7926639 12.0828099,23.8018602 12.0926481,23.8045676 L12.108256,23.8032389 L12.3092106,23.7104931 L12.3186497,23.7024347 L12.3186497,23.7024347 L12.3225043,23.6906389 L12.340401,23.2611114 L12.337245,23.2485176 L12.337245,23.2485176 L12.3277531,23.2396597 L12.1430473,23.1473072 Z" fill="none" /><path d="M13.299,3.1477 L21.933,18.1022 C22.5103,19.1022 21.7887,20.3522 20.634,20.3522 L3.36601,20.3522 C2.21131,20.3522 1.48962,19.1022 2.06697,18.1022 L10.7009,3.14771 C11.2783,2.14771 12.7217,2.1477 13.299,3.1477 Z M12,4.8977 L4.23203,18.3522 L19.7679,18.3522 L12,4.8977 Z M12,15 C12.5523,15 13,15.4477 13,16 C13,16.5523 12.5523,17 12,17 C11.4477,17 11,16.5523 11,16 C11,15.4477 11.4477,15 12,15 Z M12,8 C12.5523,8 13,8.44772 13,9 L13,13 C13,13.5523 12.5523,14 12,14 C11.4477,14 11,13.5523 11,13 L11,9 C11,8.44772 11.4477,8 12,8 Z" fill="currentColor" />         
</svg>
</symbol>
</defs>
</svg>


